<?xml version="1.0" encoding="UTF-8"?>
<svg width="2700" height="1100" version="1.1" viewBox="0 -150 2700 1100" xml:space="preserve" xmlns="http://www.w3.org/2000/svg" xmlns:cc="http://creativecommons.org/ns#" xmlns:dc="http://purl.org/dc/elements/1.1/" xmlns:rdf="http://www.w3.org/1999/02/22-rdf-syntax-ns#"><metadata><rdf:RDF><cc:Work rdf:about=""><dc:format>image/svg+xml</dc:format><dc:type rdf:resource="http://purl.org/dc/dcmitype/StillImage"/></cc:Work></rdf:RDF></metadata><g transform="matrix(1.3333 0 0 -1.3333 0 1122.5)"><g><path d="m504.59 476.13v302.82h-70.956v-175.24l-0.307-127.58zm-150.69-144.12 22.85-66.362c20.701 8.97 39.637 21.234 56.168 36.116v-44.592h71.673v181.66h-73.914c-5.739-47.241-35.552-86.986-76.777-106.82" fill="#707173"/><path d="m317.21 590.57 22.949 66.649c-14.665 3.298-29.897 5.096-45.558 5.096-63.207 0-119.76-28.385-157.69-73.065l57.571-40.312c25.024 26.799 60.564 43.651 100.12 43.651 7.719 0 15.238-0.793 22.609-2.019" fill="#c7d32f"/><path d="m172.92 518.49-57.492 40.256c-17.558-30.398-27.656-65.644-27.656-103.27 0-39.7 11.206-76.773 30.597-108.27l55.757 42.783c-10.599 19.459-16.628 41.767-16.628 65.485 0 22.74 5.624 44.135 15.422 63.015" fill="#d87d28"/><path d="m196.32 360-55.612-42.672c37.865-42.154 92.776-68.685 153.9-68.685 16.067 0 31.682 1.893 46.695 5.359l-22.919 66.565c-7.737-1.355-15.651-2.197-23.776-2.197-38.576 0-73.373 15.986-98.287 41.63" fill="#c12a1c"/><path d="m498.41 476.13c-1.266 13.376-3.813 26.821-7.834 40.181-18.216 60.525-61.694 106.49-115.41 129.95l-22.009-66.745c32.874-16.24 59.254-45.416 70.653-83.296 2.011-6.678 3.332-13.387 4.273-20.086z" fill="#1f99d2"/><path d="m642.3 492.68c8.6151 31.592 24.346 56.538 47.203 74.849 22.852 18.307 49.84 27.46 80.952 27.46 30.391 0 56.481-8.9175 78.261-26.744 21.776-17.831 37.093-43.022 45.949-75.565zm-2.1571-63.899h332.42v11.128c0 27.518-2.7531 51.993-8.2593 73.413-5.5062 21.415-13.997 41.105-25.485 59.051-19.387 28.954-43.978 51.517-73.773 67.671-29.795 16.154-62.049 24.231-96.745 24.231-29.203 0-56.125-5.4484-80.774-16.336-24.649-10.892-46.789-27.104-66.412-48.639-18.431-19.868-32.37-41.883-41.821-66.056-9.4557-24.173-14.179-50.138-14.179-77.896 0-26.806 5.2082-53.074 15.616-78.799 10.412-25.73 24.827-48.284 43.258-67.666 19.623-20.588 41.519-36.021 65.696-46.309 24.168-10.287 50.85-15.438 80.053-15.438 43.311 0 81.307 11.604 113.98 34.821 32.668 23.212 58.095 56.721 76.286 100.52h-80.053c-11.488-20.588-26.868-36.502-46.131-47.745-19.267-11.253-40.625-16.874-64.077-16.874-32.792 0-61.088 10.234-84.901 30.693-23.817 20.464-38.712 47.207-44.694 80.236" fill="#707173"/><path d="m1192 257.54 158.31 394.88h-75.032l-106.61-288.27-103.75 288.27h-76.464l150.05-394.88z" fill="#707173"/><path d="m1742.9 454.37c0-75.85-61.493-137.34-137.34-137.34-75.854 0-137.34 61.489-137.34 137.34 0 75.855 61.489 137.34 137.34 137.34 75.85 0 137.34-61.489 137.34-137.34m69.846 0c0 114.43-92.76 207.19-207.19 207.19-52.798 0-100.96-19.779-137.55-52.295v43.16h-71.798v-522.68h71.082v170.36c36.671-32.89 85.124-52.918 138.26-52.918 114.43 0 207.19 92.76 207.19 207.18" fill="#707173"/><path d="m1871.8 698.73h70.362v81.49h-70.362z" fill="#707173"/><path d="m1942.2 652.42h-70.362v-394.88h70.362z" fill="#707173"/></g></g></svg>
